<svg xmlns="http://www.w3.org/2000/svg" xmlns:xlink="http://www.w3.org/1999/xlink" width="500" zoomAndPan="magnify" viewBox="0 0 375 374.999991" height="500" preserveAspectRatio="xMidYMid meet" version="1.0"><defs><g/><clipPath id="77733e3f14"><path d="M 60 60 L 315 60 L 315 315 L 60 315 Z M 60 60 " clip-rule="nonzero"/></clipPath><clipPath id="c1e7bb7838"><path d="M -18.320312 187.648438 L 187.980469 -18.652344 L 394.277344 187.648438 L 187.980469 393.945312 Z M -18.320312 187.648438 " clip-rule="nonzero"/></clipPath><clipPath id="980b8eada3"><path d="M -18.320312 187.648438 L 187.980469 -18.652344 L 394.277344 187.648438 L 187.980469 393.945312 Z M -18.320312 187.648438 " clip-rule="nonzero"/></clipPath></defs><rect x="-37.5" width="450" fill="#ffffff" y="-37.499999" height="449.999989" fill-opacity="1"/><rect x="-37.5" width="450" fill="#ff0080" y="-37.499999" height="449.999989" fill-opacity="1"/><g clip-path="url(#77733e3f14)"><g clip-path="url(#c1e7bb7838)"><g clip-path="url(#980b8eada3)"><path fill="#000000" d="M 254.042969 64.011719 C 229.253906 88.800781 204.46875 113.585938 179.679688 138.375 C 185.179688 138.371094 190.679688 138.375 196.179688 138.375 C 171.394531 113.585938 146.605469 88.796875 121.816406 64.011719 C 117.320312 59.511719 109.8125 59.515625 105.316406 64.011719 C 91.644531 77.683594 77.96875 91.359375 64.292969 105.035156 C 59.796875 109.535156 59.796875 117.039062 64.292969 121.535156 C 89.082031 146.324219 113.867188 171.109375 138.65625 195.898438 C 138.65625 190.398438 138.65625 184.898438 138.65625 179.398438 C 113.867188 204.183594 89.082031 228.972656 64.292969 253.761719 C 59.796875 258.257812 59.796875 265.761719 64.292969 270.261719 C 77.96875 283.933594 91.644531 297.609375 105.316406 311.285156 C 109.8125 315.777344 117.320312 315.78125 121.816406 311.285156 C 146.605469 286.496094 171.390625 261.707031 196.179688 236.921875 C 190.679688 236.921875 185.179688 236.921875 179.679688 236.921875 C 204.46875 261.710938 229.253906 286.496094 254.042969 311.285156 C 258.535156 315.777344 266.042969 315.78125 270.542969 311.285156 C 284.214844 297.609375 297.890625 283.933594 311.566406 270.257812 C 316.0625 265.765625 316.0625 258.253906 311.566406 253.761719 C 286.777344 228.972656 261.992188 204.183594 237.203125 179.398438 C 237.203125 184.898438 237.203125 190.398438 237.203125 195.898438 C 261.992188 171.109375 286.777344 146.324219 311.566406 121.535156 C 316.0625 117.039062 316.0625 109.53125 311.566406 105.035156 C 297.890625 91.363281 284.21875 77.6875 270.542969 64.011719 C 259.902344 53.371094 243.402344 69.871094 254.042969 80.511719 C 267.71875 94.183594 281.394531 107.859375 295.066406 121.535156 C 295.066406 116.035156 295.066406 110.535156 295.066406 105.035156 C 270.277344 129.824219 245.492188 154.609375 220.703125 179.398438 C 216.210938 183.894531 216.210938 191.402344 220.703125 195.898438 C 245.492188 220.6875 270.28125 245.472656 295.066406 270.261719 C 295.066406 264.757812 295.066406 259.261719 295.066406 253.761719 C 281.394531 267.433594 267.71875 281.109375 254.042969 294.785156 C 259.542969 294.785156 265.042969 294.785156 270.542969 294.785156 C 245.753906 269.996094 220.96875 245.210938 196.179688 220.421875 C 191.6875 215.925781 184.179688 215.921875 179.679688 220.421875 C 154.894531 245.210938 130.105469 269.996094 105.316406 294.785156 C 110.816406 294.785156 116.316406 294.785156 121.816406 294.785156 C 108.144531 281.109375 94.46875 267.433594 80.792969 253.761719 C 80.792969 259.261719 80.792969 264.761719 80.792969 270.261719 C 105.582031 245.472656 130.367188 220.6875 155.15625 195.898438 C 159.65625 191.398438 159.65625 183.894531 155.15625 179.398438 C 130.371094 154.609375 105.582031 129.824219 80.792969 105.035156 C 80.792969 110.535156 80.792969 116.035156 80.792969 121.535156 C 94.46875 107.859375 108.144531 94.1875 121.820312 80.511719 C 116.320312 80.511719 110.820312 80.511719 105.320312 80.511719 C 130.105469 105.296875 154.894531 130.085938 179.679688 154.875 C 184.179688 159.371094 191.6875 159.367188 196.179688 154.875 C 220.96875 130.085938 245.753906 105.300781 270.542969 80.511719 C 281.183594 69.871094 264.683594 53.371094 254.042969 64.011719 Z M 254.042969 64.011719 " fill-opacity="1" fill-rule="nonzero"/></g></g></g><g fill="#000000" fill-opacity="1"><g transform="translate(154.391574, 227.519749)"><g><path d="M 1.234375 -9.578125 L 8.28125 -8.28125 L 5.84375 -5.84375 L 1.578125 -6.671875 L 2.40625 -2.40625 L 0.0625 -0.0625 L -1.171875 -6.984375 L -7.71875 -8.21875 L -5.375 -10.5625 L -1.515625 -9.765625 L -2.296875 -13.640625 L 0.078125 -16.015625 Z M 1.234375 -9.578125 "/></g></g></g><g fill="#000000" fill-opacity="1"><g transform="translate(171.850024, 210.061299)"><g><path d="M 2.328125 -7.484375 L 4.90625 -4.90625 L 2.890625 -2.890625 L 0.375 -5.40625 L -8.03125 -7.90625 L -6 -9.9375 L -0.609375 -8.390625 L -2.203125 -13.734375 L -0.171875 -15.765625 Z M 2.328125 -7.484375 "/></g></g></g><g fill="#000000" fill-opacity="1"><g transform="translate(188.694099, 193.217225)"><g><path d="M 2.8125 -2.8125 L 0.796875 -0.796875 L -7.171875 -8.765625 L -5.15625 -10.78125 Z M 2.8125 -2.8125 "/></g></g></g><g fill="#000000" fill-opacity="1"><g transform="translate(201.419613, 180.49171)"><g><path d="M 4.625 -7.5625 L 1.140625 -4.078125 L 2.015625 -2.015625 L -0.0625 0.0625 L -4.59375 -11.34375 L -2.515625 -13.421875 L 8.8125 -8.8125 L 6.65625 -6.65625 Z M 2.484375 -8.484375 L -1.59375 -10.3125 L 0.1875 -6.1875 Z M 2.484375 -8.484375 "/></g></g></g><g fill="#000000" fill-opacity="1"><g transform="translate(219.287639, 162.623684)"><g><path d="M 8.140625 -8.140625 L 6.359375 -6.359375 L -2.203125 -7.609375 L 2.703125 -2.703125 L 0.796875 -0.796875 L -7.171875 -8.765625 L -5.390625 -10.546875 L 3.203125 -9.296875 L -1.71875 -14.21875 L 0.171875 -16.109375 Z M 8.140625 -8.140625 "/></g></g></g></svg>